<!-- Generator: Adobe Illustrator 20.1.0, SVG Export Plug-In  -->
<svg version="1.1"
	 xmlns="http://www.w3.org/2000/svg" xmlns:xlink="http://www.w3.org/1999/xlink" xmlns:a="http://ns.adobe.com/AdobeSVGViewerExtensions/3.0/"
	 x="0px" y="0px" width="182.083px" height="183.854px" viewBox="0 0 182.083 183.854"
	 style="overflow:scroll;enable-background:new 0 0 182.083 183.854;" xml:space="preserve">
<style type="text/css">
	.st0{fill:#556F7B;}
</style>
<defs>
</defs>
<g>
	<path class="st0" d="M33.971,108.673c-0.136-1.918-0.26-3.666-0.399-5.625c6.128-0.668,12.05-1.314,18.168-1.98
		c-0.522-3.391-1.029-6.713-1.548-10.033c-0.457-2.923-0.87-5.855-1.437-8.756c-0.127-0.648-0.689-1.448-1.269-1.734
		c-6.581-3.239-9.9-8.483-9.894-15.805c0.002-2.836-0.252-5.741,0.26-8.494c1.287-6.92,5.443-11.483,12.345-13.235
		c1.533-0.389,2.339-1.143,3.079-2.462c7.008-12.482,17.111-21.236,31.481-23.484c17.243-2.697,32.828,1.046,44.738,14.813
		c6.195,7.162,9.181,15.855,10.241,25.152c0.501,4.389,0.283,8.857,0.558,13.278c0.055,0.885,0.675,1.951,1.368,2.543
		c2.921,2.494,4.89,5.431,4.694,9.397c-0.149,3.015-0.616,6.014-0.785,9.029c-0.256,4.567-1.896,8.25-6.181,10.679
		c2.772,0.352,5.548,0.674,8.315,1.063c8.241,1.159,16.49,2.363,24.344,5.238c2.625,0.961,5.235,2.268,7.461,3.937
		c3.397,2.548,3.415,6.412,0.144,9.144c-1.714,1.432-3.769,2.679-5.879,3.366c-4.85,1.577-9.819,2.794-14.763,4.066
		c-0.783,0.201-1.948,0.244-2.471-0.194c-0.741-0.622-1.392-1.734-1.465-2.683c-0.114-1.482,1.053-2.202,2.452-2.538
		c4.01-0.963,8.054-1.824,11.996-3.017c2.36-0.714,4.555-1.976,6.823-2.991c-0.009-0.244-0.019-0.489-0.028-0.733
		c-0.95-0.6-1.847-1.313-2.858-1.78c-5.591-2.581-11.572-3.812-17.584-4.858c-18.22-3.17-36.618-4.211-55.076-4.575
		c-19.887-0.391-39.725,0.306-59.511,2.379C38.915,108.027,36.547,108.356,33.971,108.673z M108.216,58.396
		c-0.052-0.004-0.104-0.009-0.156-0.013c0-0.802,0.007-1.603-0.001-2.405c-0.063-6.258-3.994-10.073-10.186-9.693
		c-4.981,0.305-9.95,0.806-14.923,1.225c-9.702,0.819-19.4,1.691-29.107,2.441c-4.764,0.368-8.372,3.625-8.739,8.418
		c-0.192,2.513-0.187,5.063-0.006,7.578c0.357,4.96,4.636,8.783,9.286,8.394c15.169-1.268,30.335-2.566,45.501-3.866
		c3.751-0.321,6.934-2.916,7.788-6.588C108.087,62.111,108.049,60.23,108.216,58.396z M72.615,87.652
		c1.235,0.357,2.194,0.592,3.123,0.912c2.121,0.731,3.139,2.619,2.56,4.664c-0.548,1.937-2.564,3.022-4.712,2.493
		c-1.555-0.383-3.092-0.835-4.642-1.235c-3.869-0.998-4.636-2.191-4.031-6.068c0.376-2.406,0.638-4.83,0.987-7.52
		c-3.376,0.288-6.456,0.55-9.681,0.824c1.028,6.448,2.004,12.571,3.011,18.886c23.48-1.358,46.817-1.275,70.384,0.494
		c-0.292-0.391-0.4-0.607-0.569-0.752c-8.558-7.364-17.115-14.731-25.706-22.057c-0.4-0.341-1.118-0.49-1.666-0.447
		c-5.346,0.421-10.687,0.901-16.03,1.365c-3.98,0.345-7.96,0.69-12.019,1.042C73.278,82.797,72.956,85.158,72.615,87.652z
		 M132.643,64.364c0.144-15.131-6.482-33.34-26.416-38.861c-20.045-5.551-36.459,2.085-44.724,16.187
		c0.267,0.02,0.493,0.068,0.714,0.05c11.547-0.953,23.103-1.819,34.638-2.909c5.414-0.511,9.95,1.026,13.84,4.717
		c4.741,4.5,9.475,9.008,14.216,13.507C127.438,59.455,129.975,61.844,132.643,64.364z M110.024,73.866
		c0.254,0.315,0.379,0.531,0.558,0.684c7.621,6.557,15.233,13.126,22.883,19.649c1.812,1.545,4.141,0.552,4.434-1.922
		c0.398-3.366,0.7-6.75,0.852-10.135c0.038-0.855-0.421-1.978-1.039-2.578c-5.222-5.07-10.532-10.049-15.819-15.052
		c-1.953-1.848-3.914-3.687-6.301-5.935C115.911,64.8,114.367,69.888,110.024,73.866z"/>
	<path class="st0" d="M31.433,130.309c0.854,3.557,1.569,6.847,2.439,10.096c2.286,8.541,5.262,16.814,9.904,24.399
		c2.595,4.24,5.596,8.137,9.822,10.912c5.196,3.412,10.396,3.365,15.582-0.038c3.525-2.313,6.228-5.437,8.46-8.944
		c1.717-2.698,3.183-5.555,4.748-8.349c0.907-1.619,2.363-2.195,3.849-1.491c1.362,0.645,1.966,2.233,1.231,3.794
		c-3.151,6.691-6.973,12.931-12.706,17.767c-8.703,7.342-18.766,7.183-27.291-0.39c-6.329-5.622-10.366-12.799-13.642-20.448
		c-5.306-12.39-8.15-25.42-9.832-38.736c-0.338-2.678-0.617-5.364-0.954-8.327c-6.091,1.401-12.125,2.425-17.715,6.273
		c1.492,0.884,2.518,1.707,3.688,2.142c2.88,1.07,5.807,2.03,8.757,2.889c1.078,0.314,1.698,0.649,1.782,1.889
		c0.093,1.387,0.455,2.757,0.765,4.504c-1.873-0.456-3.486-0.739-5.026-1.245c-3.21-1.055-6.434-2.104-9.547-3.406
		c-1.436-0.6-2.783-1.631-3.897-2.741c-2.45-2.441-2.533-6.037,0.172-8.155c2.378-1.862,5.168-3.373,8.004-4.428
		c3.617-1.345,7.452-2.115,11.215-3.042c0.998-0.246,1.425-0.529,1.381-1.679c-0.454-11.848-0.365-23.687,1.009-35.484
		c1.993-17.113,5.514-33.81,13.773-49.163c2.614-4.859,5.782-9.332,9.957-13.012c8.904-7.848,19.087-7.863,28.014-0.037
		c0.88,0.771,1.71,1.607,2.499,2.471c1.24,1.358,1.258,3.017,0.113,4.125c-1.205,1.166-2.668,1.049-4.111-0.204
		c-1.81-1.571-3.545-3.287-5.555-4.555c-4.589-2.893-9.324-2.778-13.981-0.007c-4.19,2.494-7.213,6.135-9.797,10.167
		c-5.862,9.15-9.252,19.295-11.73,29.773c-4.581,19.364-5.646,39.014-4.387,58.81c0.352,5.531,1.19,11.03,1.77,16.547
		c0.108,1.032,0.531,1.473,1.601,1.584c7.784,0.807,15.561,1.675,23.342,2.513c0.796,0.086,1.606,0.059,2.4,0.161
		c1.859,0.238,3.018,1.426,2.937,2.949c-0.088,1.661-1.405,2.786-3.354,2.658c-3.568-0.233-7.135-0.515-10.693-0.875
		C41.588,131.488,36.761,130.906,31.433,130.309z"/>
	<path class="st0" d="M82.872,133.144c-1.167,5.478-2.292,10.764-3.422,16.05c-0.232,1.083-0.443,2.173-0.731,3.242
		c-0.581,2.151-2.495,3.395-4.433,2.929c-2.065-0.497-3.288-2.426-2.834-4.698c0.724-3.621,1.542-7.223,2.314-10.834
		c0.629-2.943,1.249-5.889,1.919-9.05c-9.873-2.923-17.073-8.848-21.352-18.577c2.585-0.158,4.903-0.355,7.224-0.394
		c0.466-0.008,1.111,0.481,1.387,0.92c3.373,5.357,8.161,8.765,14.168,10.622c4.114,1.271,8.188,2.673,12.266,4.055
		c2.514,0.852,3.602,2.812,2.83,4.948c-0.744,2.057-2.767,2.9-5.178,2.142C85.744,134.093,84.464,133.664,82.872,133.144z"/>
	<path class="st0" d="M134.784,112.806c-0.848,3.137-1.36,6.136-2.467,8.897c-2.24,5.583-0.955,11.178-0.501,16.774
		c0.447,5.523,1.074,11.032,1.579,16.551c0.195,2.13-1.312,3.948-3.333,4.169c-2.109,0.231-3.952-1.237-4.181-3.517
		c-0.555-5.514-1.022-11.038-1.536-16.556c-0.314-3.372-0.694-6.739-0.952-10.115c-0.087-1.143-0.067-2.352,0.21-3.455
		c0.988-3.936,2.17-7.824,3.14-11.764c0.323-1.311,0.906-1.679,2.164-1.519C130.733,112.502,132.574,112.611,134.784,112.806z"/>
	<path class="st0" d="M141.2,131.446c-1.798-0.033-2.917-0.714-3.203-2.373c-0.274-1.594,0.627-2.872,2.34-3.153
		c2.055-0.336,4.132-0.577,6.21-0.728c1.757-0.128,2.918,0.892,3.062,2.464c0.141,1.536-0.871,2.763-2.576,3.018
		C145.033,130.973,143.023,131.208,141.2,131.446z"/>
</g>
</svg>