<!-- Generator: Adobe Illustrator 20.1.0, SVG Export Plug-In  -->
<svg version="1.1"
	 xmlns="http://www.w3.org/2000/svg" xmlns:xlink="http://www.w3.org/1999/xlink" xmlns:a="http://ns.adobe.com/AdobeSVGViewerExtensions/3.0/"
	 x="0px" y="0px" width="194.076px" height="154.819px" viewBox="0 0 194.076 154.819"
	 style="overflow:scroll;enable-background:new 0 0 194.076 154.819;" xml:space="preserve">
<style type="text/css">
	.st0{fill:#556F7B;}
	.st1{fill:none;}
</style>
<defs>
</defs>
<g>
	<path class="st0" d="M73.432,112.332c-3.87,0.341-7.463,0.575-11.035,0.987c-11.228,1.295-22.373,3.046-33.272,6.158
		c-1.571,0.449-1.995,1.095-1.98,2.683c0.082,8.809,0.037,17.62,0.027,26.43c-0.004,3.831-1.821,5.25-5.391,3.755
		c-4.705-1.971-9.44-3.996-13.827-6.57c-5.438-3.19-8.059-7.866-7.95-14.68c0.358-22.48,0.14-44.97,0.128-67.456
		C0.124,51.938,0.089,40.235,0.059,28.532c-0.01-3.923,1.923-6.903,4.69-9.399c5.136-4.634,11.393-7.238,17.832-9.383
		C35.73,5.37,49.325,3.176,63.065,1.708c15.13-1.616,30.307-2.009,45.492-1.497c20.793,0.702,41.415,2.802,61.404,9.035
		c5.783,1.803,11.46,3.957,16.376,7.571c2.186,1.607,4.268,3.578,5.787,5.8c1.148,1.679,1.852,4.019,1.858,6.068
		c0.109,35.043,0.069,70.087,0.093,105.131c0.002,3.089-1.263,5.598-3.19,7.839c-2.75,3.2-6.19,5.561-10.029,7.161
		c-5.016,2.09-10.152,3.912-15.299,5.664c-2.976,1.013-4.543-0.274-4.547-3.41c-0.012-10.191-0.049-20.382,0.038-30.572
		c0.014-1.656-0.509-2.216-2.073-2.588c-16.112-3.834-32.504-5.389-48.996-6.168c-0.585-0.028-1.172-0.004-2.069-0.004
		c0.102,1.9,0.166,3.703,0.3,5.501c0.719,9.699,1.466,19.396,2.179,29.096c0.17,2.309-0.823,3.727-2.634,3.933
		c-1.828,0.208-3.179-1.123-3.363-3.523c-0.598-7.797-1.139-15.598-1.705-23.398c-0.347-4.784-0.537-9.588-1.108-14.346
		c-0.369-3.073,0.328-5.419,2.603-7.569c5.351-5.057,10.586-10.238,15.78-15.456c0.973-0.978,1.824-2.27,2.245-3.575
		c3.268-10.115,6.418-20.268,9.602-30.41c0.157-0.5,0.332-0.999,0.437-1.511c0.442-2.154-0.548-4.013-2.417-4.585
		c-1.956-0.598-3.955,0.42-4.657,2.576c-1.666,5.116-3.238,10.263-4.844,15.398c-1.586,5.072-3.142,10.154-4.773,15.212
		c-0.249,0.773-0.675,1.648-1.292,2.12c-4.637,3.545-9.155,7.302-14.095,10.372c-2.989,1.858-6.66,2.625-10.038,3.848
		c-1.292,0.468-2.662,0.736-3.92,1.275c-4.062,1.738-6.198,4.791-6.457,9.281c-0.779,13.516-1.659,27.026-2.5,40.538
		c-0.02,0.328-0.027,0.659-0.077,0.983c-0.314,2.013-1.496,3.051-3.292,2.903c-1.738-0.143-2.815-1.452-2.691-3.462
		c0.405-6.559,0.862-13.115,1.289-19.673C72.799,122.425,73.099,117.582,73.432,112.332z M27.173,113.809
		c15.398-4.306,30.921-6.312,46.646-7.514c0.033-6.518,2.91-11.22,8.307-14.341c-4.231-6.169-5.466-12.879-4.713-19.916
		c0.92-8.597,9.321-14.499,17.636-12.684c6.868,1.499,11.788,8.129,11.616,15.628c-0.035,1.542-0.005,3.086-0.005,4.869
		c1.77-1.372,3.3-2.519,3.97-4.763c2.814-9.431,5.806-18.809,8.759-28.198c1.478-4.698,5.633-7.582,10.112-7.088
		c6.503,0.718,10.28,6.515,8.31,12.884c-3.278,10.594-6.539,21.195-10.003,31.729c-0.668,2.031-1.953,4.039-3.444,5.584
		c-4.61,4.775-9.461,9.319-14.21,13.96c-0.48,0.469-0.907,0.99-1.372,1.502c8.932,0.766,17.65,1.27,26.302,2.324
		c8.629,1.051,17.191,2.653,25.922,4.036c0-0.855,0-1.833,0-2.811c0-20.448-0.001-40.897,0.002-61.345
		c0-3.079,0.486-3.668,3.46-4.579c6.601-2.022,13.174-4.144,18.906-8.154c6.234-4.361,6.386-8.799-0.048-12.868
		c-4.281-2.707-8.992-4.955-13.791-6.582c-18.074-6.128-36.888-8.096-55.82-9.104C99.057,5.598,84.408,5.874,69.773,7.085
		c-13.246,1.096-26.371,2.923-39.203,6.456c-7.035,1.937-13.998,4.17-20.008,8.518c-6.107,4.418-6.199,8.72,0.141,12.748
		c4.059,2.579,8.603,4.444,13.048,6.351c3.057,1.312,3.421,1.472,3.421,4.813c0.001,21.698,0.001,43.396,0.001,65.094
		C27.173,111.907,27.173,112.747,27.173,113.809z M187.782,123.05c0-27.956,0-55.811,0-83.908
		c-5.875,4.19-12.156,6.806-18.734,8.726c-1.658,0.484-2.203,1.201-2.196,2.985c0.078,19.653,0.054,39.307,0.047,58.96
		c-0.001,3.65-0.022,3.65,3.305,5.085c0.12,0.052,0.258,0.07,0.369,0.136c1.403,0.834,2.101,2.017,1.518,3.631
		c-0.564,1.56-1.747,2.233-3.414,1.955c-0.541-0.09-1.078-0.2-1.603-0.298c0,9.231,0,18.247,0,27.639
		c3.198-1.226,6.253-2.095,9.012-3.533c3.407-1.776,6.815-3.724,9.767-6.151c3.096-2.545,3.034-5.851,0.027-8.501
		c-2.383-2.1-5.184-3.759-7.922-5.412c-2.161-1.305-3.026-2.827-2.106-4.544c0.856-1.598,2.656-1.967,4.82-0.818
		C183.036,120.257,185.328,121.645,187.782,123.05z M6.318,39.363c0,28.034,0,55.779,0,83.794c1.123-0.717,2.025-1.337,2.968-1.885
		c1.807-1.051,3.532-0.704,4.445,0.849c0.875,1.487,0.368,2.985-1.285,4.213c-1.576,1.171-3.222,2.302-4.578,3.702
		c-2.432,2.511-2.424,5.366-0.053,7.901c3.587,3.835,8.264,5.85,13.229,7.827c0.048-0.889,0.111-1.524,0.113-2.16
		c0.014-5.785,0.024-11.57,0.023-17.355c-0.002-25.967-0.016-51.935,0.012-77.902c0.001-1.233-0.353-1.812-1.542-2.298
		c-3.093-1.263-6.119-2.698-9.124-4.164C9.14,41.211,7.868,40.303,6.318,39.363z M83.188,75.288
		c0.036,4.636,1.081,9.198,2.97,11.852c0.682,0.959,2.003,2.446,2.658,2.274c3.131-0.825,6.338-1.795,9.088-3.434
		c1.228-0.732,1.713-3.102,2.063-4.824c0.479-2.357,0.729-4.809,0.687-7.214c-0.097-5.546-5.054-9.696-10.265-8.804
		C86.153,65.861,83.148,70.098,83.188,75.288z"/>
	<path class="st0" d="M73.646,29.094c-0.002-2.181-0.637-2.81-2.813-2.847c-1.578-0.027-3.156-0.019-4.734-0.004
		c-2.433,0.024-2.885,0.461-2.887,2.87c-0.009,10.389-0.004,20.779-0.004,31.168c0,4.394,0,8.787,0,13.392
		c-1.296,0.066-2.422,0.124-3.707,0.19c0-1.121,0-1.968,0-2.816c0.003-9.863,0.015-19.727,0.004-29.59
		c-0.003-2.44-0.608-3.029-3.012-3.055c-1.512-0.016-3.025,0-4.537,0.009c-2.392,0.014-2.908,0.501-2.917,2.858
		c-0.017,4.34-0.008,8.68-0.008,13.019c-0.001,6.765,0,13.53,0,20.506c-1.25,0.135-2.371,0.257-3.687,0.4c0-0.923,0-1.568,0-2.212
		c-0.003-6.641,0.003-13.282-0.013-19.924c-0.006-2.3-0.617-2.887-2.936-2.91c-1.315-0.013-2.63-0.002-3.945-0.002
		c-3.345-0.002-3.575,0.228-3.575,3.586c0,7.556,0,15.112,0,22.775c-0.409,0.133-0.592,0.209-0.782,0.251
		c-1.442,0.321-3.145,0.606-2.669,2.61c0.454,1.911,2.049,1.524,3.558,1.29c11.764-1.826,23.589-3.044,35.501-3.284
		c2.621-0.053,3.162-0.586,3.164-3.304c0.003-4.471,0.007-8.943,0.007-13.414C73.652,50.136,73.657,39.615,73.646,29.094z
		 M38.993,75.818c0-7.176,0-14.314,0-21.59c0.734,0,1.423,0,2.295,0c0.044,0.549,0.128,1.117,0.129,1.684
		c0.01,5.981-0.053,11.963,0.041,17.943C41.486,75.721,40.743,76.163,38.993,75.818z M55.394,74.219c-0.825,0-1.514,0-2.301,0
		c0-10.623,0-21.152,0-31.796c0.812,0,1.497,0,2.301,0C55.394,53.052,55.394,63.579,55.394,74.219z M69.479,73.375
		c-0.67,0.039-1.352,0.08-2.209,0.13c0-14.414,0-28.697,0-43.183c0.805,0,1.435,0,2.209,0
		C69.479,44.656,69.479,58.889,69.479,73.375z"/>
	<path class="st0" d="M108.319,48.594c0.645-8.659,4.233-14.629,11.296-18.107c6.962-3.428,13.848-2.814,20.364,1.444
		c0.71,0.464,1.369,1.02,1.999,1.591c0.893,0.808,1.166,1.785,0.348,2.782c-0.874,1.066-1.821,0.844-2.955,0.208
		c-2.427-1.361-4.822-3.071-7.457-3.722c-11.326-2.797-21.72,7.671-19.178,19.079c0.086,0.384,0.142,0.776,0.247,1.154
		c0.362,1.3-0.079,2.261-1.359,2.605c-1.321,0.355-2.197-0.37-2.444-1.641C108.784,51.937,108.517,49.863,108.319,48.594z"/>
	<path class="st0" d="M83.686,37.182c-0.828,0-1.471,0-2.42,0c0,0.722,0,1.416,0,2.11c0,5.916-0.015,11.831,0.009,17.747
		c0.006,1.469-0.259,2.75-2.038,2.712c-1.666-0.036-1.887-1.295-1.883-2.666c0.019-7.099,0.044-14.197-0.001-21.296
		c-0.012-1.842,0.729-2.666,2.571-2.617c1.773,0.047,3.549,0.019,5.323-0.014c1.603-0.03,2.474,0.643,2.472,2.322
		c-0.004,5.981,0.016,11.962,0.01,17.943c-0.001,1.259-0.491,2.249-1.903,2.265c-1.502,0.017-2.043-0.992-2.046-2.344
		c-0.013-4.93-0.006-9.859-0.012-14.789C83.768,38.17,83.723,37.783,83.686,37.182z"/>
	<path class="st0" d="M148.683,49.161c-0.331,4.838-1.878,9.058-5.046,12.631c-0.91,1.026-1.943,1.756-3.194,0.698
		c-1.24-1.049-0.781-2.181,0.162-3.235c2.592-2.895,3.879-6.331,4.103-10.179c0.081-1.386,0.424-2.559,2.094-2.465
		C148.444,46.704,148.743,47.903,148.683,49.161z"/>
	<path class="st0" d="M34.02,31.661c-0.434-0.444-1.458-1.018-1.49-1.643c-0.038-0.744,0.65-2.073,1.241-2.21
		c3.56-0.823,7.172-1.46,10.796-1.937c0.571-0.075,1.713,0.903,1.824,1.53c0.113,0.635-0.604,1.954-1.166,2.086
		C41.665,30.322,38.047,30.911,34.02,31.661z"/>
	<path class="st0" d="M41.205,22.34c-0.436-0.476-1.537-1.161-1.489-1.752c0.064-0.795,0.896-2.012,1.608-2.185
		c2.983-0.725,6.033-1.248,9.087-1.562c0.743-0.076,1.597,0.925,2.4,1.43c-0.531,0.775-0.936,2.07-1.616,2.235
		C48.084,21.259,44.897,21.696,41.205,22.34z"/>
	<path class="st0" d="M154.815,18.099c2.909,0.808,5.465,1.399,7.914,2.286c0.575,0.208,1.259,1.606,1.052,2.115
		c-0.279,0.687-1.462,1.563-2.098,1.451c-2.501-0.44-4.979-1.122-7.371-1.981c-0.575-0.206-1.152-1.485-1.055-2.177
		C153.348,19.135,154.319,18.599,154.815,18.099z"/>
	<path class="st0" d="M164.366,33.9c-2.479-0.81-4.686-1.409-6.768-2.301c-0.5-0.214-0.889-1.457-0.763-2.12
		c0.102-0.537,1.161-1.386,1.608-1.283c2.331,0.537,4.636,1.246,6.863,2.117c0.435,0.17,0.802,1.418,0.628,1.997
		C165.739,32.955,164.891,33.403,164.366,33.9z"/>
	<path class="st0" d="M170.435,27.672c-1.736-0.826-3.276-1.403-4.616-2.285c-0.432-0.284-0.668-1.552-0.398-2.041
		c0.322-0.583,1.383-1.243,1.95-1.112c1.435,0.331,2.851,0.958,4.109,1.735c0.471,0.291,0.795,1.421,0.62,1.995
		C171.901,26.612,171.065,27.065,170.435,27.672z"/>
	<path class="st0" d="M150.167,20.861c-1.662-0.426-3.025-0.56-4.149-1.15c-0.603-0.317-1.205-1.515-1.058-2.139
		c0.149-0.631,1.223-1.465,1.89-1.464c1.267,0.004,2.63,0.349,3.758,0.932c0.616,0.318,1.204,1.461,1.117,2.144
		C151.643,19.832,150.663,20.366,150.167,20.861z"/>
	<path class="st0" d="M147.183,42.07c-0.442,0.298-1.148,1.076-1.985,1.262c-1.072,0.237-2.666-1.948-2.637-3.439
		c0.024-1.242,0.711-1.943,1.986-1.938C145.765,37.959,147.193,39.841,147.183,42.07z"/>
	<path class="st0" d="M33.854,23.392c-0.303-0.385-1.219-1.058-1.397-1.89c-0.287-1.341,1.079-2.211,3.223-2.244
		c1.264-0.019,2.155,0.521,2.209,1.914C37.943,22.584,36.75,23.368,33.854,23.392z"/>
	<path class="st0" d="M56.085,19.84c-0.418-0.6-1.428-1.394-1.443-2.208c-0.036-1.859,1.663-1.941,3.019-2.049
		c1.359-0.108,2.185,0.765,2.108,2.038C59.657,19.471,58.031,19.471,56.085,19.84z"/>
	<path class="st0" d="M168.541,31.895c2.048-0.093,4.001,1.308,3.678,2.372c-0.242,0.798-1.243,1.906-1.92,1.915
		c-1.297,0.018-2.899-0.492-2.882-2.224C167.424,33.165,168.259,32.38,168.541,31.895z"/>
	<path class="st0" d="M49.812,28.785c-0.382-0.469-1.345-1.127-1.467-1.915c-0.239-1.546,1.047-2.297,2.34-2.129
		c0.778,0.101,1.904,1.021,2.053,1.742C53.06,28.048,51.722,28.496,49.812,28.785z"/>
	<path class="st1" d="M67.27,30.322c0.805,0,1.435,0,2.209,0c0,14.334,0,28.566,0,43.052c-0.67,0.039-1.352,0.08-2.209,0.13
		C67.27,59.092,67.27,44.808,67.27,30.322z"/>
	<path class="st1" d="M55.394,74.219c-0.825,0-1.514,0-2.301,0c0-10.623,0-21.152,0-31.796c0.812,0,1.497,0,2.301,0
		C55.394,53.052,55.394,63.579,55.394,74.219z"/>
	<path class="st1" d="M38.993,75.818c0-7.176,0-14.314,0-21.59c0.734,0,1.423,0,2.294,0c0.044,0.549,0.128,1.117,0.129,1.684
		c0.01,5.981-0.053,11.964,0.041,17.943C41.486,75.721,40.743,76.163,38.993,75.818z"/>
</g>
</svg>